<svg width="19" height="20" viewBox="0 0 19 20" fill="none" xmlns="http://www.w3.org/2000/svg">
<path d="M17.1932 2.41977H15.6729V1.38209C15.6729 0.618791 15.0542 0 14.2908 0H14.2356C13.4723 0 12.8535 0.618791 12.8535 1.38209V2.41977H5.72187V1.38209C5.72187 0.618791 5.10308 0 4.33977 0H4.28449C3.52119 0 2.9024 0.618791 2.9024 1.38209V2.41977H1.38209C0.618791 2.41977 0 3.03856 0 3.80186V18.6179C0 19.3813 0.618791 20 1.38209 20H17.1932C17.9565 20 18.5753 19.3813 18.5753 18.6179V3.80186C18.5753 3.03856 17.9565 2.41977 17.1932 2.41977ZM16.2534 17.8163H2.32192V6.59369H16.2534V17.8163Z" fill="#FFDF39"/>
<path d="M4.21546 11.6723H6.62019C6.74231 11.6723 6.84133 11.5733 6.84133 11.4512V9.04642C6.84133 8.9243 6.74231 8.82529 6.62019 8.82529H4.21546C4.09334 8.82529 3.99432 8.9243 3.99432 9.04642V11.4512C3.99432 11.5733 4.09334 11.6723 4.21546 11.6723Z" fill="#FFDF39"/>
<path d="M8.08533 11.6723H10.4901C10.6122 11.6723 10.7112 11.5733 10.7112 11.4512V9.04642C10.7112 8.9243 10.6122 8.82529 10.4901 8.82529H8.08533C7.96321 8.82529 7.8642 8.9243 7.8642 9.04642V11.4512C7.8642 11.5733 7.96321 11.6723 8.08533 11.6723Z" fill="#FFDF39"/>
<path d="M11.9552 11.6723H14.3599C14.4821 11.6723 14.5811 11.5733 14.5811 11.4512V9.04642C14.5811 8.9243 14.4821 8.82529 14.3599 8.82529H11.9552C11.8331 8.82529 11.7341 8.9243 11.7341 9.04642V11.4512C11.7341 11.5733 11.8331 11.6723 11.9552 11.6723Z" fill="#FFDF39"/>
<path d="M4.21546 15.5421H6.62019C6.74231 15.5421 6.84133 15.4431 6.84133 15.321V12.9163C6.84133 12.7942 6.74231 12.6952 6.62019 12.6952H4.21546C4.09334 12.6952 3.99432 12.7942 3.99432 12.9163V15.321C3.99432 15.4431 4.09334 15.5421 4.21546 15.5421Z" fill="#FFDF39"/>
<path d="M8.08533 15.5421H10.4901C10.6122 15.5421 10.7112 15.4431 10.7112 15.321V12.9163C10.7112 12.7942 10.6122 12.6952 10.4901 12.6952H8.08533C7.96321 12.6952 7.8642 12.7942 7.8642 12.9163V15.321C7.8642 15.4431 7.96321 15.5421 8.08533 15.5421Z" fill="#FFDF39"/>
<path d="M11.9552 15.5421H14.3599C14.4821 15.5421 14.5811 15.4431 14.5811 15.321V12.9163C14.5811 12.7942 14.4821 12.6952 14.3599 12.6952H11.9552C11.8331 12.6952 11.7341 12.7942 11.7341 12.9163V15.321C11.7341 15.4431 11.8331 15.5421 11.9552 15.5421Z" fill="#FFDF39"/>
</svg>
