<svg width="20" height="20" viewBox="0 0 20 20" fill="none" xmlns="http://www.w3.org/2000/svg">
<g clip-path="url(#clip0)">
<path d="M8.76447 7.74207L0.474867 16.0316C0.166524 16.3399 0.0122681 16.7092 0.0122681 17.1393C0.0122681 17.5776 0.166482 17.9427 0.474867 18.2351L1.76511 19.5498C2.08173 19.85 2.45095 20 2.87283 20C3.30299 20 3.66816 19.85 3.96845 19.5498L12.27 11.2479C11.475 10.9313 10.7711 10.4668 10.1582 9.85412C9.5456 9.24135 9.08108 8.53735 8.76447 7.74207ZM4.19979 16.9081C4.0454 17.0622 3.86284 17.1394 3.65192 17.1394C3.44091 17.1394 3.25835 17.0622 3.10418 16.9081C2.94996 16.7539 2.87283 16.5713 2.87283 16.3603C2.87283 16.1496 2.94996 15.9667 3.10418 15.8123C3.25835 15.6584 3.44079 15.5812 3.65192 15.5812C3.86297 15.5812 4.04558 15.6584 4.19979 15.8123C4.35392 15.9667 4.43105 16.1495 4.43105 16.3603C4.43105 16.5713 4.35392 16.7539 4.19979 16.9081Z" fill="#FFDF39"/>
<path d="M19.8844 5.64828C19.8154 5.56701 19.72 5.52651 19.5984 5.52651C19.5255 5.52651 19.2395 5.67066 18.7402 5.95875C18.2412 6.24676 17.6912 6.57535 17.0909 6.94466C16.4902 7.31402 16.1696 7.51078 16.1292 7.53517L13.7797 6.23264V3.50591L17.3462 1.44855C17.476 1.35932 17.541 1.24569 17.541 1.10772C17.541 0.969839 17.476 0.856257 17.3462 0.766977C16.989 0.523441 16.5527 0.334734 16.0377 0.200858C15.5224 0.066981 15.0292 0 14.5587 0C13.0574 0 11.7732 0.533716 10.7062 1.60081C9.6388 2.66781 9.10547 3.95213 9.10547 5.45339C9.10547 6.95468 9.6391 8.23896 10.7062 9.30605C11.7732 10.3731 13.0574 10.9068 14.5587 10.9068C15.703 10.9068 16.7519 10.5677 17.7054 9.89025C18.6588 9.21264 19.3265 8.33012 19.7079 7.24269C19.8944 6.69904 19.9877 6.26884 19.9877 5.95244C19.988 5.83101 19.9532 5.72954 19.8844 5.64828Z" fill="#FFDF39"/>
</g>
<defs>
<clipPath id="clip0">
<rect width="20" height="20" fill="white"/>
</clipPath>
</defs>
</svg>
