<svg width="20" height="20" viewBox="0 0 20 20" fill="none" xmlns="http://www.w3.org/2000/svg">
<path d="M4.6738 4.0552L12.6468 1.8789L12.2246 1.02544C11.9484 0.470698 11.2746 0.241614 10.7198 0.517863L3.58228 4.0552H4.6738Z" fill="#FFDF39"/>
<path d="M15.1218 1.94177C15.023 1.94177 14.9242 1.95525 14.8254 1.9822L12.9523 2.49427L7.23187 4.05518H13.7249H16.5547L16.2044 2.77052C16.0696 2.26968 15.6159 1.94177 15.1218 1.94177Z" fill="#FFDF39"/>
<path d="M17.7249 4.84125H17.4688H17.1207H16.7726H14.1157H4.35261H3.07243H1.99439H1.7945H1.12521C0.770354 4.84125 0.453678 5.0052 0.247052 5.26348C0.152723 5.38252 0.0808535 5.51952 0.0404267 5.67C0.0157215 5.76432 0 5.86315 0 5.96421V6.09897V7.37915V18.4763C0 19.0962 0.503088 19.5992 1.12296 19.5992H17.7226C18.3425 19.5992 18.8456 19.0962 18.8456 18.4763V15.3432H12.1819C11.1286 15.3432 10.2729 14.4875 10.2729 13.4342V12.4055V12.0574V11.7093V10.9367C10.2729 10.4201 10.4795 9.95076 10.8141 9.60713C11.1106 9.30166 11.5081 9.09504 11.9528 9.04338C12.027 9.03442 12.1033 9.02991 12.1797 9.02991H17.9113H18.2594H18.6075H18.8456V5.96421C18.8478 5.34434 18.3448 4.84125 17.7249 4.84125Z" fill="#FFDF39"/>
<path d="M19.6339 10.1035C19.5216 10.0001 19.3891 9.92154 19.2408 9.86988C19.1263 9.83172 19.005 9.80927 18.877 9.80927H18.8478H18.8253H18.4772H17.2217H12.1819C11.562 9.80927 11.0589 10.3123 11.0589 10.9322V11.4914V11.8396V12.1877V13.4319C11.0589 14.0518 11.562 14.5549 12.1819 14.5549H18.8478H18.877C19.005 14.5549 19.1263 14.5324 19.2408 14.4943C19.3891 14.4448 19.5216 14.364 19.6339 14.2607C19.8585 14.0563 20 13.7598 20 13.4319V10.9322C20 10.6043 19.8585 10.3078 19.6339 10.1035ZM14.5266 12.4055C14.5266 12.7155 14.2751 12.967 13.9651 12.967H13.5923C13.2824 12.967 13.0308 12.7155 13.0308 12.4055V12.0327C13.0308 11.853 13.1139 11.6936 13.2464 11.5925C13.343 11.5184 13.4621 11.4712 13.5923 11.4712H13.6866H13.9651C14.2751 11.4712 14.5266 11.7228 14.5266 12.0327V12.4055Z" fill="#FFDF39"/>
</svg>
