<svg width="205" height="214" viewBox="0 0 205 214" fill="none" xmlns="http://www.w3.org/2000/svg">
<g filter="url(#filter0_f)">
<path fill-rule="evenodd" clip-rule="evenodd" d="M89.6238 28.0032C85.1107 28.6092 82.6118 33.5566 84.8026 37.5487C85.4371 38.705 86.3948 39.6175 87.528 40.1987L83.8395 89.9345C78.6311 92.6879 73.8996 96.567 70.0244 101.564L65.5834 107.29C63.7994 109.59 61.8168 111.729 59.6585 113.682L46.6009 125.5C45.1722 126.793 43.9381 128.285 42.9371 129.932C34.8467 143.24 44.4264 160.275 60.0004 160.275H147.612C161.774 160.275 169.975 144.23 161.681 132.752C160.875 131.637 160.204 130.43 159.683 129.156L156.491 121.35C153.661 114.43 148.886 108.478 142.743 104.216C140.498 102.658 138.398 100.838 136.531 98.8429C131.48 93.4466 125.403 89.6238 118.905 87.3617L120.894 45.6023L98.5008 40.9131H112.512C116.906 40.9131 120.468 37.3511 120.468 32.9572C120.468 28.1426 116.225 24.4314 111.453 25.0721L89.6238 28.0032Z" fill="url(#paint0_angular)"/>
</g>
<g filter="url(#filter1_d)">
<path fill-rule="evenodd" clip-rule="evenodd" d="M92.6219 31.9007C90.5004 31.9007 88.7806 33.6205 88.7806 35.7421C88.7806 37.7877 90.3796 39.4599 92.396 39.5769V77.676C91.1242 78.6775 89.9841 79.9154 89.0377 81.3896L58.1774 129.46C51.7685 139.443 58.9369 152.564 70.8001 152.564H132.521C144.384 152.564 151.552 139.443 145.143 129.46L114.283 81.3896C113.337 79.9154 112.196 78.6775 110.925 77.676V39.5769C112.941 39.4599 114.54 37.7877 114.54 35.7421C114.54 33.6205 112.82 31.9007 110.699 31.9007H92.6219Z" fill="#EFEFEF"/>
</g>
<g filter="url(#filter2_d)">
<path d="M75.8894 195.936H69.8174V197.784H75.8894C75.8894 198.532 75.8014 199.17 75.6474 199.742C75.4934 200.314 75.2954 200.82 75.0314 201.238C74.7894 201.678 74.4814 202.03 74.1514 202.316C73.7994 202.624 73.4474 202.844 73.0734 203.042C72.6994 203.218 72.3254 203.35 71.9294 203.438C71.5554 203.504 71.1814 203.548 70.8294 203.548C70.1474 203.548 69.5314 203.438 68.9814 203.196C68.4094 202.976 67.9254 202.69 67.5294 202.294C67.1114 201.92 66.8034 201.458 66.5834 200.952C66.3414 200.446 66.2314 199.918 66.2314 199.346H64.1854C64.1854 200.138 64.3394 200.886 64.6474 201.612C64.9554 202.338 65.3954 202.998 65.9454 203.548C66.4954 204.098 67.1994 204.56 67.9914 204.89C68.8054 205.22 69.7074 205.396 70.7194 205.396C71.2254 205.396 71.7534 205.352 72.3034 205.242C72.8754 205.132 73.4254 204.956 73.9754 204.692C74.5254 204.45 75.0314 204.098 75.5374 203.68C76.0434 203.262 76.4834 202.734 76.8794 202.118C77.2534 201.502 77.5614 200.776 77.7814 199.918C78.0234 199.06 78.1334 198.114 78.1334 196.992C78.1334 196.002 78.0454 195.1 77.8694 194.308C77.6934 193.516 77.4294 192.812 77.0994 192.196C76.7914 191.602 76.3954 191.096 75.9334 190.656C75.4934 190.238 75.0094 189.886 74.4594 189.6C73.9314 189.336 73.3594 189.116 72.7434 188.984C72.1494 188.874 71.5334 188.808 70.8954 188.808C70.1694 188.808 69.5314 188.896 68.9374 189.028C68.3214 189.16 67.7934 189.358 67.3094 189.6C66.8254 189.864 66.4074 190.15 66.0554 190.48C65.6814 190.81 65.3954 191.162 65.1534 191.536C64.9114 191.91 64.7354 192.306 64.6034 192.702C64.4934 193.098 64.4274 193.516 64.4274 193.89H66.4954C66.5614 193.318 66.7374 192.834 66.9794 192.438C67.2434 192.02 67.5734 191.69 67.9694 191.426C68.3434 191.162 68.7834 190.964 69.2894 190.832C69.7734 190.722 70.3014 190.656 70.8294 190.656C71.7314 190.656 72.4794 190.81 73.1394 191.096C73.7554 191.404 74.2834 191.8 74.7014 192.284C75.1194 192.79 75.4274 193.34 75.6034 193.978C75.8014 194.616 75.9114 195.276 75.8894 195.936ZM79.5344 193.494V195.21H83.4944V205H85.4744V195.21H89.4344V193.494H79.5344ZM93.4164 202.316V193.494H91.4364V205H93.7024L99.3344 196.178H99.3784V205H101.38V193.494H99.1144L93.4604 202.316H93.4164ZM107.519 197.982L107.607 195.21H112.007V205H113.987V193.494H105.715L105.627 197.74C105.605 198.576 105.561 199.28 105.517 199.896C105.473 200.49 105.385 200.996 105.319 201.414C105.231 201.832 105.121 202.184 105.033 202.448C104.923 202.712 104.791 202.91 104.681 203.064C104.549 203.196 104.417 203.284 104.285 203.35C104.153 203.394 103.999 203.416 103.845 203.416C103.625 203.416 103.383 203.372 103.097 203.262V205C103.185 205.066 103.295 205.132 103.449 205.198C103.581 205.242 103.757 205.286 103.955 205.286C104.505 205.286 104.989 205.154 105.407 204.934C105.825 204.692 106.199 204.296 106.485 203.724C106.793 203.152 107.013 202.404 107.189 201.458C107.365 200.534 107.475 199.368 107.519 197.982ZM126.685 201.326H124.771C124.661 201.59 124.551 201.854 124.397 202.14C124.243 202.404 124.067 202.646 123.825 202.866C123.583 203.108 123.297 203.284 122.945 203.416C122.593 203.57 122.153 203.636 121.647 203.636C121.141 203.636 120.701 203.548 120.305 203.372C119.909 203.196 119.557 202.954 119.293 202.624C119.007 202.294 118.787 201.92 118.655 201.458C118.501 200.996 118.413 200.49 118.413 199.94H126.817V198.95C126.817 197.982 126.685 197.124 126.443 196.376C126.157 195.672 125.805 195.056 125.343 194.572C124.859 194.088 124.309 193.736 123.649 193.494C122.989 193.252 122.285 193.142 121.493 193.142C121.119 193.142 120.723 193.186 120.327 193.296C119.931 193.406 119.535 193.56 119.161 193.758C118.765 193.978 118.413 194.242 118.061 194.572C117.731 194.902 117.423 195.298 117.159 195.738C116.895 196.178 116.697 196.684 116.543 197.256C116.367 197.828 116.301 198.466 116.301 199.17C116.301 200.204 116.433 201.128 116.719 201.898C116.983 202.668 117.357 203.306 117.841 203.812C118.303 204.34 118.875 204.714 119.535 204.978C120.195 205.22 120.899 205.352 121.669 205.352C122.373 205.352 123.033 205.242 123.627 205C124.199 204.78 124.705 204.472 125.123 204.076C125.563 203.702 125.915 203.284 126.179 202.8C126.443 202.316 126.619 201.832 126.685 201.326ZM124.837 198.356H118.413C118.435 197.85 118.545 197.388 118.721 196.948C118.897 196.53 119.117 196.156 119.403 195.848C119.689 195.54 120.019 195.298 120.415 195.122C120.789 194.946 121.207 194.858 121.647 194.858C122.131 194.858 122.549 194.924 122.945 195.078C123.319 195.254 123.671 195.474 123.935 195.76C124.199 196.068 124.419 196.42 124.595 196.86C124.727 197.3 124.815 197.806 124.837 198.356ZM131.1 198.136V193.494H129.12V205H131.1V199.852H136.468V205H138.448V193.494H136.468V198.136H131.1Z" fill="#878FA6"/>
</g>
<g filter="url(#filter3_d)">
<path d="M102.648 95.3248L107.065 93.7135L105.223 97.1766C104.542 98.4569 104.167 99.8777 104.128 101.327L104.126 101.404C104.038 104.648 105.657 107.7 108.392 109.446L113.175 112.134C115.798 113.608 117.734 116.058 118.563 118.951C119.047 120.64 119.135 122.418 118.82 124.147L118.553 125.609C118.077 128.224 117.02 130.7 115.461 132.853L115.221 133.184C114.145 134.669 112.866 135.996 111.422 137.126L109.873 138.337C108.742 139.222 107.49 139.941 106.155 140.472L105.766 140.627C101.374 142.375 96.4028 141.84 92.4827 139.2L91.2451 138.366C90.016 137.538 89.0212 136.407 88.3568 135.082C86.6434 131.666 87.3847 127.529 90.1779 124.92L91.8266 123.381L91.4559 124.935C91.1612 126.17 91.3558 127.472 91.999 128.567C92.6773 129.723 93.7972 130.551 95.1002 130.862L96.0565 131.09C97.3523 131.399 98.7272 131.338 99.9936 130.924C101.214 130.526 102.335 129.801 103.197 128.849C105.765 126.011 105.842 121.672 103.338 118.777L103.033 118.425C102.467 117.77 101.799 117.21 101.055 116.766L98.1079 115.008C96.7204 114.181 95.5934 112.98 94.8557 111.543C94.394 110.643 94.0943 109.669 93.9702 108.666L93.9358 108.388C93.7356 106.77 93.9264 105.128 94.492 103.599L94.6952 103.05C95.6601 100.442 97.4604 98.2267 99.8157 96.7488L100.09 96.5767C100.896 96.0707 101.754 95.6511 102.648 95.3248Z" fill="#F5DDDE"/>
</g>
<defs>
<filter id="filter0_f" x="0" y="-15" width="205" height="215.275" filterUnits="userSpaceOnUse" color-interpolation-filters="sRGB">
<feFlood flood-opacity="0" result="BackgroundImageFix"/>
<feBlend mode="normal" in="SourceGraphic" in2="BackgroundImageFix" result="shape"/>
<feGaussianBlur stdDeviation="20" result="effect1_foregroundBlur"/>
</filter>
<filter id="filter1_d" x="33.7756" y="9.90073" width="135.769" height="164.663" filterUnits="userSpaceOnUse" color-interpolation-filters="sRGB">
<feFlood flood-opacity="0" result="BackgroundImageFix"/>
<feColorMatrix in="SourceAlpha" type="matrix" values="0 0 0 0 0 0 0 0 0 0 0 0 0 0 0 0 0 0 127 0"/>
<feOffset/>
<feGaussianBlur stdDeviation="11"/>
<feColorMatrix type="matrix" values="0 0 0 0 0 0 0 0 0 0 0 0 0 0 0 0 0 0 0.4 0"/>
<feBlend mode="normal" in2="BackgroundImageFix" result="effect1_dropShadow"/>
<feBlend mode="normal" in="SourceGraphic" in2="effect1_dropShadow" result="shape"/>
</filter>
<filter id="filter2_d" x="60.1854" y="188.808" width="82.2626" height="24.588" filterUnits="userSpaceOnUse" color-interpolation-filters="sRGB">
<feFlood flood-opacity="0" result="BackgroundImageFix"/>
<feColorMatrix in="SourceAlpha" type="matrix" values="0 0 0 0 0 0 0 0 0 0 0 0 0 0 0 0 0 0 127 0"/>
<feOffset dy="4"/>
<feGaussianBlur stdDeviation="2"/>
<feColorMatrix type="matrix" values="0 0 0 0 0 0 0 0 0 0 0 0 0 0 0 0 0 0 0.25 0"/>
<feBlend mode="normal" in2="BackgroundImageFix" result="effect1_dropShadow"/>
<feBlend mode="normal" in="SourceGraphic" in2="effect1_dropShadow" result="shape"/>
</filter>
<filter id="filter3_d" x="81.4725" y="91.2495" width="47.6849" height="61.9935" filterUnits="userSpaceOnUse" color-interpolation-filters="sRGB">
<feFlood flood-opacity="0" result="BackgroundImageFix"/>
<feColorMatrix in="SourceAlpha" type="matrix" values="0 0 0 0 0 0 0 0 0 0 0 0 0 0 0 0 0 0 127 0"/>
<feOffset dy="4"/>
<feGaussianBlur stdDeviation="2"/>
<feColorMatrix type="matrix" values="0 0 0 0 0 0 0 0 0 0 0 0 0 0 0 0 0 0 0.25 0"/>
<feBlend mode="normal" in2="BackgroundImageFix" result="effect1_dropShadow"/>
<feBlend mode="normal" in="SourceGraphic" in2="effect1_dropShadow" result="shape"/>
</filter>
<radialGradient id="paint0_angular" cx="0" cy="0" r="1" gradientUnits="userSpaceOnUse" gradientTransform="translate(99.6869 106.188) rotate(55.6432) scale(70.5089 63.2127)">
<stop offset="0.196667" stop-color="#6579F2"/>
<stop offset="0.561293" stop-color="#2ACED0"/>
<stop offset="0.755208" stop-color="#2D56E3"/>
<stop offset="0.983283" stop-color="#8F84CD"/>
</radialGradient>
</defs>
</svg>
