<svg width="871" height="481" viewBox="0 0 871 481" fill="none" xmlns="http://www.w3.org/2000/svg">
<path d="M286.747 67.9407L397.424 4.04145L508.1 67.9407V195.739L397.424 259.638L286.747 195.739V67.9407Z" stroke="#33317C" stroke-opacity="0.05" stroke-width="7"/>
<path d="M167.758 284.977L278.434 221.078L389.111 284.977V412.775L278.434 476.674L167.758 412.775V284.977Z" stroke="#33317C" stroke-opacity="0.05" stroke-width="7"/>
<path d="M428.755 271.412L515.937 221.078L603.118 271.412V372.081L515.937 422.415L428.755 372.081V271.412Z" stroke="#33317C" stroke-opacity="0.05" stroke-width="7"/>
<path d="M87.0182 90.5486L174.2 40.2141L261.382 90.5486V191.218L174.2 241.552L87.0182 191.218V90.5486Z" stroke="#33317C" stroke-opacity="0.05" stroke-width="7"/>
<path d="M642.602 249.994L709.175 211.558L775.747 249.994V326.865L709.175 365.301L642.602 326.865V249.994Z" stroke="#33317C" stroke-opacity="0.05" stroke-width="7"/>
<path d="M723.515 106.255L790.087 67.8196L856.66 106.255V183.126L790.087 221.562L723.515 183.126V106.255Z" stroke="#33317C" stroke-opacity="0.05" stroke-width="7"/>
<path d="M14.3402 255.705L80.9126 217.27L147.485 255.705V332.577L80.9126 371.012L14.3402 332.577V255.705Z" stroke="#33317C" stroke-opacity="0.05" stroke-width="7"/>
<path d="M529.658 86.741L616.839 36.4065L704.021 86.741V187.41L616.839 237.744L529.658 187.41V86.741Z" stroke="#33317C" stroke-opacity="0.05" stroke-width="7"/>
</svg>
