<svg width="146" height="30" viewBox="0 0 146 30" fill="none" xmlns="http://www.w3.org/2000/svg">
<g clip-path="url(#clip0)">
<path d="M10.1903 2.39854L8.66958 2.39785C6.37256 2.39656 4.14936 3.9105 4.1492 8.29519C4.15103 12.5319 6.18787 13.896 8.66993 13.8958L10.1905 13.8964L10.1903 2.39854ZM7.81876 16.2546L3.29667 26.3507L0 26.3497L4.96626 15.5556C2.63125 14.3755 1.07573 12.2379 1.07381 8.29529C1.07359 2.76628 4.59345 0.00385944 8.78108 0.00296863L13.0411 0.00316735L13.0418 26.3517L10.1897 26.3506L10.1901 16.2529L7.81876 16.2546Z" fill="#ED1D24"/>
<path d="M68.4483 17.0632C68.4482 11.2422 70.71 7.5183 75.0827 7.51791C76.7481 7.5188 77.7135 7.95991 78.5269 8.47717L78.1193 11.2041C77.3419 10.5394 76.2303 9.91605 75.0457 9.91576C72.9698 9.91556 71.4877 12.2357 71.4875 16.9165C71.4877 21.5573 72.5997 24.213 74.9328 24.2108C76.3428 24.212 77.4165 23.6585 78.0824 23.0696L78.7507 25.207C77.7495 26.0555 76.5652 26.6073 74.8596 26.6061C70.857 26.6076 68.4494 23.4022 68.4483 17.0632ZM60 17.0999L60.0011 26.3495L57.1088 26.3501L57.1097 7.77891L59.9999 7.77832L60 16.3638L64.4832 7.77752L67.4117 7.77732L62.7798 16.5097L68.0788 26.3497L64.9291 26.3507L60 17.0999ZM46.4029 15.3681L51.1819 15.3673C51.1814 12.1987 50.6623 9.87942 48.9948 9.87853C47.2169 9.87833 46.5875 12.052 46.4029 15.3681ZM49.5888 26.6094C45.735 26.609 43.3636 23.5521 43.3639 17.839C43.3637 11.868 45.0308 7.52008 48.9952 7.52018C52.1089 7.52058 54.1465 9.8408 54.1461 16.1439L54.1463 17.7262L46.3643 17.7261C46.3647 21.9287 47.5511 24.1393 49.8481 24.1386C51.4794 24.1408 52.7747 23.4024 53.516 22.8864L54.1834 25.0959C52.9982 26.0199 51.4412 26.6067 49.5888 26.6094ZM37.2857 10.0988L34.0616 10.101L34.063 10.431C34.0614 14.3378 33.8779 20.0481 32.3211 23.9916L37.2872 23.9932L37.2857 10.0988ZM41.6233 29.9994L39.0287 30.0001V26.3514L31.0234 26.3503L31.0254 29.9988L28.4307 29.9996L28.431 23.9925L29.5796 23.9921C31.2853 20.0487 31.4691 14.3002 31.4689 9.36137L31.4686 7.77713L40.1397 7.77941L40.1393 23.9922L41.6217 23.9904L41.6233 29.9994ZM26.762 7.77901L26.7633 26.3501L23.9092 26.3492L23.9094 18.0218L19.611 18.0212L19.6108 26.3506L16.7206 26.3512L16.7213 7.78L19.6117 7.77941L19.6115 15.6648L23.9098 15.6634L23.91 7.77802L26.762 7.77901Z" fill="#211D1D"/>
<path d="M93.4749 1.51109L93.4767 26.3492L91.6215 26.35L91.6224 1.51178L86.399 1.51247L86.3976 0.000315656L98.7354 0.000612594L98.7363 1.51089L93.4749 1.51109Z" fill="#211D1D"/>
<path d="M106.552 21.669V16.5461L104.551 16.5468C101.476 16.5469 99.9921 17.9469 99.9941 21.1914C99.9921 23.808 101.144 25.3177 102.922 25.318C104.663 25.3177 105.886 23.6582 106.552 21.669ZM106.627 23.8423C105.738 25.6125 104.403 26.7185 102.551 26.7172C100.03 26.7189 98.2894 24.7287 98.2903 21.3361C98.2885 17.3575 100.475 15.2949 104.515 15.2941L106.552 15.2939V12.9714C106.552 10.135 105.477 8.92013 103.44 8.91835C101.846 8.91865 100.401 9.6571 99.5114 10.9452L99.0298 9.28827C99.7711 8.3302 101.326 7.40738 103.441 7.40807C106.513 7.40807 108.259 9.10202 108.258 12.7887L108.257 22.9224C108.257 24.2107 108.443 25.6474 108.664 26.3485L107.071 26.3488C106.923 25.8707 106.737 25.1701 106.627 23.8423Z" fill="#211D1D"/>
<path d="M113.803 26.3473L112.063 26.3495L112.062 7.77643L113.804 7.77613V16.5096L120.066 7.77554L121.771 7.77673L115.62 16.4005L122.215 26.3481L120.289 26.3497L113.803 16.7297V26.3473Z" fill="#211D1D"/>
<path d="M132.606 23.2164L133.162 24.6542C133.162 24.6542 131.79 26.7178 128.864 26.7159C125.12 26.7189 122.971 23.143 122.972 17.0999C122.972 10.9828 125.083 7.4071 128.9 7.4071C130.827 7.40739 132.16 8.14377 132.978 9.13897L132.494 10.9827C131.681 9.8394 130.494 8.88113 128.9 8.88133C126.046 8.88252 124.711 11.8649 124.711 17.0978C124.712 22.1846 126.009 25.2067 128.9 25.2061C131.309 25.205 132.606 23.2164 132.606 23.2164Z" fill="#211D1D"/>
<path d="M144.333 13.4137C144.332 12.4556 144.405 11.6445 144.481 10.8713L144.37 10.8718C144.11 11.6824 143.777 12.4559 143.37 13.2645L137.292 26.3479L135.81 26.3477L135.811 7.77644L137.44 7.77476L137.441 20.673C137.441 21.6691 137.367 22.4782 137.292 23.2894L137.404 23.2909C137.663 22.4422 138.033 21.6312 138.404 20.8221L144.481 7.77476L146 7.77545L145.999 26.3487L144.332 26.348L144.333 13.4137Z" fill="#211D1D"/>
</g>
<defs>
<clipPath id="clip0">
<rect width="146" height="30" fill="white"/>
</clipPath>
</defs>
</svg>
